<svg id="accenture" xmlns="http://www.w3.org/2000/svg" viewBox="0 0 400 400"><defs><style>.cls-1{fill:#b5b5b5;}</style></defs><title>accenture</title><path class="cls-1" d="M29.1,232.93c0,6.71-2.56,15.67-10.87,15.67-3.84,0-6.4-1.92-6.4-6.07,0-8,11.51-9.59,17.27-9.59Zm11.51,23V218.87c0-12.15-7.67-16.31-18.87-16.31-10.87,0-19.82,4.79-19.82,16.63H13.75c0-5.12,2.88-8,8-8,6.07,0,7.35,4.48,7.35,9.59v5.12C17.27,226.22,0,227.82,0,243.48c0,9,7,13.75,15.35,13.75,5.75,0,10.87-1.92,13.43-7.35h.32V256H40.61Zm36.13-34.21c0-5.44-1.6-10.55-8-10.55-7.67,0-9.91,8-9.91,14.38,0,13.11,7.67,23,21.42,23a27.62,27.62,0,0,0,9-1.28v7.36a51.57,51.57,0,0,1-15.35,2.56C55.32,257.23,46,245.72,46,227.5c0-15,8.31-24.94,23.66-24.94,12.79,0,19.82,6.4,19.82,19.18H76.74Zm46.68,0c0-5.44-1.6-10.55-8-10.55-7.67,0-9.91,8-9.91,14.38,0,13.11,7.67,23,21.42,23a28.92,28.92,0,0,0,9-1.28v7.36a51.57,51.57,0,0,1-15.35,2.56c-18.54,0-27.82-11.51-27.82-29.73,0-15,8-24.94,23.66-24.94,12.79,0,19.82,6.4,19.82,19.18Zm47.64-2.24H151.88a9.77,9.77,0,0,1,9.91-9C167.55,210.55,171.06,213.75,171.06,219.51Zm11.51,7.35v-3.2c0-12.47-6.71-21.1-19.82-21.1-15.67,0-22.38,9.91-22.38,24.62,0,17.27,7.67,30.05,26.22,30.05A45.71,45.71,0,0,0,181.3,255v-8.31a36.36,36.36,0,0,1-10.23,1.92c-11.51,0-19.51-10.87-19.51-21.74h31ZM218.38,256V226.22c0-2.56.32-9.27-1.92-11.19-.64-1-2.24-1-3.2-1-9,0-12.47,12.47-12.47,19.51V256H188.65V203.84H200.8v9.91h.32c2.56-6.72,8-11.19,15.35-11.19,9.91,0,14.07,8.31,14.07,17.27V256H218.38Zm37.41-43.49v24.62c0,6.07.64,11.51,8.31,11.51a14.94,14.94,0,0,0,5.44-1v8.63a49.61,49.61,0,0,1-9.91,1c-10.55,0-16-3.52-16-14.38V212.47h-9.91v-8.63h9.91V191.36l12.15-4.8v17.27h15.67v8.63H255.8ZM306.32,256v-9.59c-2.88,6.39-8.31,10.87-15.35,10.87-10.23,0-14.38-8.31-14.38-17.27V203.84h12.15v29.74c0,2.56,0,9.27,1.92,11.19,1,1,2.24,1,3.52,1,9,0,12.15-12.15,12.15-19.19v-22.7h12.15V256H306.32Zm32-22.7V256H326.14V203.84h12.15v9.59h.32c4.16-7,8-10.87,16.94-10.87v12.79c-12.47,0-17.27,5.43-17.27,17.9Zm50.2-13.75H369.62c.32-5.44,4.48-9,9.91-9S388.49,213.75,388.49,219.51ZM400,226.86v-3.2c0-12.47-6.39-21.1-19.82-21.1-15.35,0-22.39,9.91-22.39,24.62,0,17.27,8,30.05,26.54,30.05A45.11,45.11,0,0,0,398.72,255v-8.31a34.16,34.16,0,0,1-9.91,1.92c-11.83,0-19.51-10.87-19.51-21.74H400ZM233.41,142.77v8.63s24.3,9.27,27.82,10.55c-3.52,1.6-27.82,10.87-27.82,10.87v8.63l38.05-15.35v-8Z"/></svg>