<svg id="apple" xmlns="http://www.w3.org/2000/svg" viewBox="0 0 400 400"><defs><style>.cls-1{fill:#b5b5b5;}</style></defs><title>apple</title><path class="cls-1" d="M216.88,34.81C243.16.17,279.7,0,279.7,0S285.13,32.57,259,63.94c-27.88,33.5-59.57,28-59.57,28S193.5,65.61,216.88,34.81Zm-14.08,80c13.52,0,38.61-18.59,71.28-18.59,56.22,0,78.34,40,78.34,40S309.16,158.31,309.16,212c0,60.54,53.89,81.41,53.89,81.41s-37.67,106-88.55,106c-23.37,0-41.54-15.75-66.16-15.75-25.09,0-50,16.34-66.21,16.34C95.65,400,37,299.42,37,218.57,37,139,86.64,97.3,133.24,97.3c30.3,0,53.81,17.47,69.56,17.47Z"/></svg>