<svg id="cdw" xmlns="http://www.w3.org/2000/svg" viewBox="0 0 400 400"><defs><style>.cls-1{fill:#b5b5b5;}</style></defs><title>cdw</title><path class="cls-1" d="M78.75,194.24c5.52-6.71,11.26-12,18.3-18.37l.22-4.95a230.63,230.63,0,0,0-23.83,23.55l5.31-.23ZM58.93,223.56c-8.56,17.08-11.91,33.92-5.85,46.87,19.06,40.51,107.12,39.92,191.82,1.29a326.92,326.92,0,0,0,57.3-33.09c49.61-36.16,68.89-77,54.69-107.28-19-40.51-96-44.75-180.66-6.24-9.1,4.12-17.76,8.6-26.1,13.19H143a440.63,440.63,0,0,1,39.21-20.84c96.29-43.81,191.92-42,213.37,4,16.25,34.5-8.45,82.79-65.2,124A401.42,401.42,0,0,1,264,284c-96.29,43.81-192.79,41.1-214.35-4.82-7.58-16.37-6.28-35.45,3.79-55.59h5.53Z"/><path class="cls-1" d="M86,191.53c-6.93,28.62-28.16,39.8-49.5,39.8-30.11,0-40.18-19.9-34.44-49.46,4.87-29.09,24.69-48.75,53.72-48.75,21.77,0,38.23,9.54,32.6,41.69H57.09C59.15,159.5,56,157.5,51.78,157.5c-8.77,0-11.59,9.77-14.51,24.73C34.56,196.36,33.15,207,41.71,207c4.44,0,8-2.82,12.24-15.42H86ZM83.3,229h42.35c26.43,0,46.79-17.43,52.31-45.69,5.42-27.67-1.62-47.81-36.07-47.69H101.5L83.3,229Zm47.44-72.19H134c5.52,0,8.34,2.12,9.75,5.89s.87,10.48-.87,19.55-3.79,15.66-6.82,19.55a14,14,0,0,1-12,6h-3.25l10-51Zm54.69-21.2H216l-4.23,58.65H212l19.5-58.65h35.2l-3.46,58.65h.22l18.74-58.65h30.43L275.77,229H238.83l3.9-60.65h-.22L222.7,229H185.76Zm132.47-.47H326v1.77h-3.14v9.19H321v-9.19H317.9Zm9,0h2.49l2.81,8.6,2.71-8.6h2.49v11h-1.73v-8.36l-2.81,8.36h-1.41l-2.82-8.36v8.36h-1.73Z"/></svg>