<svg id="dribble" xmlns="http://www.w3.org/2000/svg" viewBox="0 0 200 200"><defs><style>.cls-1{fill:#b5b5b5;}</style></defs><title>dribble</title><path class="cls-1" d="M0,100A98,98,0,0,1,13.4,49.8,99.29,99.29,0,0,1,49.8,13.4,98,98,0,0,1,100,0a98,98,0,0,1,50.2,13.4,99.29,99.29,0,0,1,36.4,36.4A98,98,0,0,1,200,100a98,98,0,0,1-13.4,50.2,99.29,99.29,0,0,1-36.4,36.4A98,98,0,0,1,100,200a98,98,0,0,1-50.2-13.4,99.29,99.29,0,0,1-36.4-36.4A98,98,0,0,1,0,100Zm16.6,0q0,31.2,21,55,9.6-18.8,30.4-35.8t40.6-21.4q-3-7-5.8-12.6-34.4,11-74.4,11-7.8,0-11.6-.2,0,.8-.1,2T16.6,100Zm2.6-20.6q4.4.4,13,.4a219.5,219.5,0,0,0,63.4-9q-15.2-27-33.4-45A81.19,81.19,0,0,0,35.1,48,85.39,85.39,0,0,0,19.2,79.4ZM49,165.8a81.73,81.73,0,0,0,80.4,12,293.68,293.68,0,0,0-15.6-66.2q-18.4,4-37.1,20.2T49,165.8ZM79.6,19.4q17.6,18.2,32.6,45.4,27.2-11.4,41-29A81.07,81.07,0,0,0,100,16.6,76.77,76.77,0,0,0,79.6,19.4ZM119.4,79q3,6.4,6.8,16.2,14.8-1.4,32.2-1.4,12.4,0,24.6.6A80.29,80.29,0,0,0,163.4,46Q150.4,65.4,119.4,79Zm11.8,30.2A287.07,287.07,0,0,1,145,170a83.45,83.45,0,0,0,25.8-26.2,80.78,80.78,0,0,0,12-34.6q-14.6-1-26.6-1Q145.2,108.2,131.2,109.2Z"/></svg>