<svg id="instagram" xmlns="http://www.w3.org/2000/svg" viewBox="0 0 200 200"><defs><style>.cls-1{fill:#b5b5b5;}</style></defs><title>instagram</title><path class="cls-1" d="M66.68,100A33.33,33.33,0,1,1,100,133.34,33.33,33.33,0,0,1,66.68,100m-18,0A51.35,51.35,0,1,0,100,48.65,51.35,51.35,0,0,0,48.66,100m92.73-53.38a12,12,0,1,0,12-12,12,12,0,0,0-12,12M59.6,181.4c-9.75-.44-15-2.07-18.57-3.44a31.1,31.1,0,0,1-11.5-7.48A30.91,30.91,0,0,1,22,159c-1.37-3.52-3-8.82-3.44-18.57C18.12,129.87,18,126.7,18,100s.11-29.86.58-40.41c.44-9.75,2.08-15,3.44-18.57a31.1,31.1,0,0,1,7.48-11.5A30.87,30.87,0,0,1,41,22c3.52-1.37,8.82-3,18.57-3.44C70.14,18.11,73.31,18,100,18s29.86.11,40.41.58c9.75.44,15,2.08,18.57,3.44a31,31,0,0,1,11.5,7.48A31,31,0,0,1,178,41c1.37,3.52,3,8.82,3.44,18.57.48,10.55.58,13.71.58,40.41s-.1,29.86-.58,40.41c-.44,9.75-2.08,15-3.44,18.57a33.11,33.11,0,0,1-19,19c-3.52,1.37-8.82,3-18.57,3.44-10.54.48-13.71.58-40.41.58s-29.86-.1-40.4-.58M58.78.61C48.13,1.09,40.86,2.78,34.5,5.25A49.07,49.07,0,0,0,16.79,16.79,48.93,48.93,0,0,0,5.25,34.5C2.78,40.86,1.09,48.13.61,58.77S0,72.84,0,100s.11,30.57.61,41.23,2.17,17.92,4.64,24.27a48.9,48.9,0,0,0,11.53,17.71A49,49,0,0,0,34.5,194.75c6.37,2.47,13.63,4.16,24.27,4.64S72.85,200,100,200s30.57-.11,41.23-.61,17.92-2.17,24.27-4.64a51.13,51.13,0,0,0,29.25-29.25c2.47-6.36,4.17-13.63,4.64-24.27s.6-14.07.6-41.23-.11-30.57-.6-41.23-2.17-17.92-4.64-24.27a49.18,49.18,0,0,0-11.53-17.71A49,49,0,0,0,165.51,5.25c-6.37-2.47-13.63-4.17-24.27-4.64S127.17,0,100,0,69.45.11,58.78.61"/></svg>