<svg id="linkendin" xmlns="http://www.w3.org/2000/svg" viewBox="0 0 200 200"><defs><style>.cls-1{fill:#b5b5b5;}</style></defs><title>linkedin</title><path class="cls-1" d="M61.89,166.71V77.57H33.29v89.14ZM48.66,64.08c9.53,0,15.47-6.82,15.47-15.37C64,40,58.19,33.34,48.81,33.34S33.34,40,33.34,48.71c0,8.54,5.94,15.37,15.11,15.37Z" transform="translate(0 0)"/><path class="cls-1" d="M133.68,75.54c-15.16,0-21.67,8.54-25.84,14.48V77.62H79.19v89.09h28.65V116a19.12,19.12,0,0,1,1-7c2.08-5.21,6.77-10.58,14.69-10.58,10.37,0,14.54,8,14.54,19.64v48.71h28.65v-52C166.71,87.94,152.54,75.54,133.68,75.54Z" transform="translate(0 0)"/><path class="cls-1" d="M184,0H17.09C8,0,0,6.56,0,15.58V182.86C0,191.92,8,200,17.09,200H184c9.17,0,16-8.13,16-17.14V15.58C200.05,6.56,193.12,0,184,0Zm-1.67,183.38H18.29a1.59,1.59,0,0,1-1.62-1.62V17.71a1.08,1.08,0,0,1,1-1H182.34a1.12,1.12,0,0,1,1,1V182.34A1.12,1.12,0,0,1,182.34,183.38Z" transform="translate(0 0)"/></svg>