<svg id="ogilvy" xmlns="http://www.w3.org/2000/svg" viewBox="0 0 400 400"><defs><style>.cls-1{fill:#b5b5b5;}</style></defs><title>ogilvy</title><path class="cls-1" d="M158.24,53.47c9.17,2.09-.24,12.33-.72,13.41-1.78,4-11,9.27-14.5,0-1.34-3.52-.53-8,2.18-10.15,1.74-1.41,9.2-4.14,13-3.26Zm69.6,11.24c-5.94-.85-9,2.18-12.69,2.18-6.67,0-5.8,12.35-5.8,16.67,2.51,0,5.42,30.83,0,30.81,0,7.79-19.93,33-23.2,39.87C184,158.86,168,170.69,166.94,159c-.1-1.13-7-13-8.7-15.59-2.22-.25-21,2.61-21,6.52-4.17,0-4.36,4.67-4.35-4.35-3.32-8.12-9.66-3.06-11.24-7.61-.55-1.59-2.43-.51-4.35-3.62-3.12-5.08-19.24,6.36-18.49,10.15-8.15,2-12.51-7.34-18.12-10.15,0-3.74-1.05-22.85-3.07-27.93C76.1,102.62,67,83.7,64.18,80.87,60.86,77.6,46.87,69.3,44.41,71.24c-13.9,0-5.2,21-10.15,21-21.06,9.28-41,38.56-31.17,64.52,4.42,11.64,11,21.36,24.65,22.11,0,3,29.5-2.55,28.64-6.89,5,0,19.95-16.77,19.94-21,2.1,0,7.72,3.22,11.13,6,5.75,4.75-3.16,11.66-1,17.17,2.12,5.35,25.37-6.75,25.37-4.35,3.75,0-8.51,34.74-11.24,36.61-4,2.74-6.22,51.86,0,51.83,0,10.69,16.5,4.17,20.3-4.35,1.69-3.78,10.58-27.7,10.87-28.63.93-2.91,2.07-17.61,2.18-18.85,1.24-14.42-1.09-25.87-1.09-39.87-1-6.39,3-8.54,7.75-8.82,4.23-.25,6,4.64,7.84,7.74,2.06,3.52,4.95,6,6.52,8.7.93,1.56,16.13,2.76,19.94,0,5.24-3.8,23.06-15.57,25.74-21,1.19-2.43,14.3-24.28,16.31-24.29-2-3.94,5.43-.5,5.44,5.44,1.75,0,12.93,16.2,13.41,18.85.72,4,16.37,13.41,16.68,13.41h10.87c0-.08,12.87-8.71,12.33-10.87,4-1.62,11.88,14.09,14.5,13-2.27,3.78,16.62,4.52,17.76,1.09,7,3.51,13.6-28.64,14.14-28.64,0-11.81,11.23-8,11.24-17.76-2.42,0-24.29-.78-24.29,3.26-5.3,0-6.89,22.26-6.89,26.83-6.1,0-13.43-17.76-17.4-17.76,0-5.93-14.5-4.74-14.5-2.54-5.15,0-7.64,8-4.35,8,0,24.19-16.83,3.05-21-5.44-2.08-4.2-12.33-31.79-12.33-37.7-3.38,0-.21-32.25-4.71-32.26V64.71h0Zm-187,37.7c2.36,0,9.63,17.79,10.15,19.94s14.38,19.94,14.5,19.94c-.92,5.55-9.92,23.21-15.59,23.2,0,3.06-16.66,3.09-16.67,0-5.72,0-16.63-21.26-15.34-29,1.89-11.36,9.87-29.48,19.69-35.14C37.54,99.48,40.8,99,40.79,102.41Zm317.9,29c-1.91-1.26-9.93,3.34-13,4.35-6.1,2-3.84,7.89-2.18,8.7,3.45,1.68,19.93,19.14,19.94,21h9.79c0-3.52,4.79,3.48,1.09,4.71,0,4.88-1.09,6-1.09,10.88-1.59,0-6.64,45.58-8.7,48.57-1.42,2.07-6.3,30.12-6.89,32.26-2.15,7.86-13.12,63.09-18.85,63.07,0,4.18-8-3.16-6.53-7.61-1.54,0-8.95-25.72-5.8-25.74,1.54-7.7-16.34-2.73-16.31,5.8,1.36,0,2.6,27.55,5.44,27.55,0,3.9,6.94,19.94,10.87,19.94,2.22,6.73,23.56,0,23.56-6.89,5.23,3.14,21.23-61.83,23.2-71.77.38-2,8.13-36,8.7-37.7,1.72-5.19,12.34-60.89,13.41-60.9,0-6.31,7.71-25.63,4.35-29,0-6.78-21-2.08-21,8-.37.12-4.37,6.5-4.35,2.18-1.61.4-11.74-15.41-13.41-16.68-.92-.7-.92.1-2.17-.73ZM114,152.07c2.54,2.54,1.57,4.51-.71,6-3.34,2.12-9.49,3.11-11.61,3.11,0-4.49,3.29-5.49,6-6.36.83-.27,6.36-5.08,6.37-2.7Zm4.35,53.28c-.28,1-2.43,32.28-6.52,32.26v1.81c-10.11,0,4.34-40.22,4.35-45.31,4.21,0,3.18,7.62,2.17,11.23Z"/></svg>