<svg id="scjohnson" xmlns="http://www.w3.org/2000/svg" viewBox="0 0 400 400"><defs><style>.cls-1{fill:#b5b5b5;}</style></defs><title>scjohnson</title><path class="cls-1" d="M31,175.3c6,1.69,9.76,2.5,16.37,2,6.13-.43,11.14-5,11.14-11.13s-4-10.51-11.14-10.45c-3.68,0-3.79,0-5.3,0a2.7,2.7,0,0,1-3-2.86c0-1.53,1.72-3,4.3-3,6.63,0,9.83,1.29,12.81,3.06l1.14-7.19A32.48,32.48,0,0,0,42.06,143c-6.33.4-10.91,5.2-10.91,10.53a9.25,9.25,0,0,0,9.67,9.66c3.13-.08,4.62.12,6.32.12,2.32,0,3.49,1.37,3.49,3.05s-1.5,3-3.34,3.45c-4.79,1-10.31,0-16.29-2.65v8.15h0Zm61.4,1.4a52.59,52.59,0,0,1-13.92.82C69.86,176.79,63,170.29,63,160.43s6.9-16.36,15.52-17.1a54,54,0,0,1,13.92.82l0,7.42a32,32,0,0,0-11.47-1.21c-6.39.73-9.32,4.29-9.32,10.07s2.93,9.34,9.32,10.05a31.78,31.78,0,0,0,11.44-1.2Z"/><path class="cls-1" d="M64,210.32a16.57,16.57,0,0,1,16.55-15.76h7.92v-1.93l-26.5-17-26.51,17v1.93h7.91a16.57,16.57,0,0,1,16.55,15.76H64Z"/><path class="cls-1" d="M64,214A16.57,16.57,0,0,0,80.56,229.8h7.92v1.91l-26.5,17-26.51-17V229.8h7.91A16.58,16.58,0,0,0,59.93,214H64Z"/><path class="cls-1" d="M36,184a38.43,38.43,0,1,0,64.49,28.24l0-69.18h23.06v68c0,38.52-30.49,47-61.56,47C28,258.09.5,248.7.5,215.89c0-18.47,16.41-34.46,35.49-34.46V184h0Zm324.72-2.61v53.82l15.87,0,0-42.08a4.09,4.09,0,1,1,8.17,0l0,34a8,8,0,0,0,8,8h7.8V193.31a11.91,11.91,0,0,0-11.9-11.91h0l-27.89,0Zm-138.27,0v53.86H238.3l0-42.08a4.09,4.09,0,1,1,8.17,0l0,34a8.05,8.05,0,0,0,8,8h7.8v-42a11.91,11.91,0,0,0-11.91-11.91h-27.9Zm-30.3,0v-23H176.36v76.87l15.77,0,.07-42a4.08,4.08,0,0,1,8.17,0l0,33.92a8,8,0,0,0,8,8h7.8v-42a11.91,11.91,0,0,0-11.9-11.91Zm147.11-.68h-9.53c-9.39,0-15.16,6.51-15.16,13.87v27.58c0,7.36,5.77,13.87,15.16,13.87h9.53c9.39,0,15.16-6.51,15.16-13.87V194.56C354.4,187.21,348.63,180.7,339.24,180.7Zm-.63,43a4.12,4.12,0,1,1-8.24,0V193.11a4.12,4.12,0,1,1,8.24,0Zm-183.69-43h-9.52c-9.4,0-15.18,6.51-15.18,13.87v27.58c0,7.36,5.78,13.87,15.18,13.87h9.52c9.4,0,15.16-6.51,15.16-13.87V194.56C170.07,187.21,164.31,180.7,154.91,180.7Zm-.63,43a4.12,4.12,0,0,1-8.25,0V193.11a4.12,4.12,0,0,1,8.25,0Zm154-1.73,0-5.45c0-6.59-5.29-11.33-11.92-11.91-2.65-.24-7.15-.7-8-.8-3.07-.42-4.08-1.83-4.08-4.09l-.07-6.58a4.12,4.12,0,0,1,8.23,0l0,3.55a4.1,4.1,0,0,0,4.09,4.1l11.77,0,0-6.17c0-7.35-5.76-13.87-15.17-13.87h-9.51c-9.41,0-15.17,6.51-15.17,13.87v5.33c0,6.58,5.18,11.22,11.9,11.9,5.2.54,5,.58,8.05.81a4.19,4.19,0,0,1,4.09,4.08v7a4.12,4.12,0,1,1-8.23,0l.12-4.16a4.11,4.11,0,0,0-4.1-4.1H268.48v6.73c0,7.36,5.75,13.87,15.17,13.87h9.51c9.41,0,15.17-6.51,15.17-13.87v-.2h0Z"/></svg>