<svg id="unilever" xmlns="http://www.w3.org/2000/svg" viewBox="0 0 400 400"><defs><style>.cls-1{fill:#b5b5b5;}</style></defs><title>unilever</title><path class="cls-1" d="M310.43,81.79C311.86,92.24,327.71,106.33,332,106c2.87,0,4-13.65,4-24.22,0-6.06.34-10.79-2.86-11.89C328,80.14,314.72,82.23,310.43,81.79Zm.88-4.63c11.44,0,21.91-9.13,21.91-17.17,0-3.74-1.76-6.82-6.28-7.37a4.83,4.83,0,0,1,1.1,3.52c0,6.06-9.24,12.78-19.26,12.78-3.64,0-4.73,2.53-4.73,3.85C304,75.84,307,77.16,311.31,77.16Zm-2.42-12.44c-1.54,0-3.74,0-4.95-2.42-1-2-.66-5.17-2.54-6.61a19.14,19.14,0,0,0,5.39.55c5,0,9.69-3.41,13.32-3.41a2.85,2.85,0,0,1,3.19,3.08C323.3,60.76,313.52,64.73,308.89,64.73ZM62.65,151c3.74,0,3-22.89,9-22.89,1.44,0,1.87,1.43,1.87,3.19,0,5.17-2.53,12.77-2.53,17,0,2.09.55,2.75,1.54,2.75,2.65,0,7.27-25.21,11.78-25.21,1.43,0,2.09,1.43,2.09,2.86,0,5.28-6.71,20.47-6.71,24.76,0,.66.22,1.21.77,1.21,2.76,0,8.26-11.89,10-17.83,1-3.08,2.31-4.73,3.52-4.73s2.09,1.21,2.09,3.74c0,5.94-5.5,19.92-10.35,29.28-3.74,7.26-9.58,17.72-9.58,23.56,0,3,.55,6.05,4.84,9.8-7-.44-9.9-1.1-12.55-6.6C56.7,215.3,90.17,213,78.72,233.8c-2.09-3.74-18.6-7.6-18.6-29.39,0-18.83,16.51-29.83,16.51-37.65a5,5,0,0,0-2-4.07c-3.64-3.08-3.74-5.62-6.61-5.62-2.09,0-4.62,4.85-2,9.13.88,1.43,1.65,2.31,1.65,3.64,0,3.08-4.84,11.34-8.25,11.34s-6.06-8.47-6.06-22.12c0-12.11,2.75-24.33,6.17-24.33,1,0,1.32.66,1.32,1.54,0,1.43-.44,4.29-.44,9.13,0,5.17,1.21,5.61,2.2,5.61ZM231.28,42.81c1.76,0,2.1,4.3,2.42,6.83.22,1.32.44,1.43,1,1.43,1.32,0,3.41-5.07,4.84-5.07,2.1,0,7.71,5.84,17.06,5.84,13.32,0,25.87-9.36,25.87-25.87,0-16-11.23-25.32-26.75-25.32-7.38,0-12.77,3.63-15.63,3.63-1.76.11-4.4-4.29-5.73-4.29-.55,0-1.1,1.1-1.1,3,0,1.21,0,5.07-1.33,5.07-2.64,0-12.88-7.6-12.88-4.85,0,2.53,6.82,10.24,6.82,12.22s-6.71,3.85-6.71,5.17c0,2.42,7.16,2.86,7.16,5.95s-7.49,5.5-7.49,7.82c0,1.87,7.49.55,7.49,2.86s-5.5,10-5.5,12.22c0,.55.11.55.55.55,2.08,0,8.36-7.16,9.9-7.16ZM90.06,205.51A4.25,4.25,0,0,1,93.8,201a4.13,4.13,0,0,1,4.62,3.74,4.27,4.27,0,0,1-3.74,4.63,4.37,4.37,0,0,1-4.62-3.85Zm-12.22,3.41a7.17,7.17,0,0,0,7.92,6.16A8.29,8.29,0,0,0,89.4,214a6.68,6.68,0,0,0,7.7,5.29,7,7,0,0,0,6.5-7.81,5.75,5.75,0,0,0-.66-2.53l.77-.11a7.19,7.19,0,0,0-1.32-14.32A8,8,0,0,0,98.87,196a7.33,7.33,0,0,0-7.93-5.5,7.17,7.17,0,0,0-6.39,8,6.31,6.31,0,0,0,.55,2.2l-.77.11a7.4,7.4,0,0,0-6.49,8ZM323.09,7a2.72,2.72,0,0,0,2.69,2.75h.06A2.75,2.75,0,1,0,323.09,7ZM261.67,111.39a4.62,4.62,0,1,0,4.62-4.62A4.65,4.65,0,0,0,261.67,111.39Zm.33,13.87a5.17,5.17,0,0,0,10.34,0h0a5.17,5.17,0,0,0-10.34,0Zm-15.85,9.36a7.59,7.59,0,1,0,7.6-7.59A7.61,7.61,0,0,0,246.15,134.62Zm4.07-15.52a4.41,4.41,0,1,0,4.4-4.4,4.41,4.41,0,0,0-4.4,4.4Zm-14.43,8.8a4.41,4.41,0,1,0,4.26-4.26A4.41,4.41,0,0,0,235.79,127.91Zm11.35-25.76a7,7,0,1,0,7-7A7.09,7.09,0,0,0,247.14,102.15Zm8.26-13.54a4.18,4.18,0,0,0,8.36.21q0-.1,0-.2a4.18,4.18,0,0,0-8.36,0ZM235.47,99.18A4.19,4.19,0,1,0,239.65,95a4.19,4.19,0,0,0-4.18,4.18Zm-.55,14.31a6.72,6.72,0,0,0,13.43.08s0-.05,0-.08a6.67,6.67,0,0,0-6.63-6.71h-.08a6.68,6.68,0,0,0-6.72,6.63S234.91,113.46,234.91,113.49Zm-13.86,7a6.27,6.27,0,1,0,6.28-6.28A6.34,6.34,0,0,0,221,120.54ZM224.79,105a4.4,4.4,0,1,0,4.41-4.41A4.42,4.42,0,0,0,224.79,105ZM210.15,267.27a4.4,4.4,0,1,0,4.4-4.41A4.41,4.41,0,0,0,210.15,267.27ZM91.71,84.87a4.4,4.4,0,1,0,4.4-4.4A4.41,4.41,0,0,0,91.71,84.87ZM86,75a4.4,4.4,0,1,0,4.41-4.41A4.42,4.42,0,0,0,86,75Zm4.74,108.31c4.62,0,8.48-3.41,8.48-11V161c0-4.3.32-9.14,3.19-12.55a19.83,19.83,0,0,0-.33,4.4c0,9.47,5.28,16,5.28,25.11,0,3.41-1,5.28-3.63,5.28S101.4,181,100.85,181s-1.1,1.43-1.1,3a6,6,0,0,0,6.28,5.95c4,0,7.15-3.63,7.15-7.71,0-9.9-7.7-20.91-7.7-31.48a24.73,24.73,0,0,1,2.19-10.13c0,21.91,18.6,37.87,18.6,47a3.67,3.67,0,0,1-3.85,3.74,3.59,3.59,0,0,1-3.74-3.52c0-.77-.11-1-.44-1-.66,0-2.65,2.2-2.65,5.06a8.24,8.24,0,0,0,8.48,8c6.28,0,9.69-5.28,9.69-10,0-11.55-22.57-29.06-22.57-47.77,0-3.2.55-8.36,2.86-12.33-14.54,9.35-19,21.8-19,32.69,0,9.46-.33,14.2-5.17,14.2-2.53,0-3.19-2.31-4.07-2.31-.66,0-1,2-1,2.53a6,6,0,0,0,5.94,6.38Zm190.76-110c4.84,0,8.48-2.2,8.48-3.52,0-.44-.66-.76-2.1-.76a60.28,60.28,0,0,1-9.69-1c-4.63-.77-8.15-2.53-9.47-2.53-.44,0-.66.22-.66.55,0,2.86,5.29,7.26,13.44,7.26Zm-24-14c1.43-.88,7.59.55,15.63-3.41a6,6,0,0,1,2.85-.77c3.86,0,2.87,4.4,6.4,4.4,2.75,0,6.28-2.31,8.37-2.31,3.29,0,8,10.35,8,15.19,0,5.61-8.47,9-18.49,9-14.65,0-23.45-12.77-23.45-21a1.16,1.16,0,0,1,.66-1.1ZM93,224.77c-3.63.88-9.46,6.61-9.46,15.64,0,10.78,11.56,27.41,30.6,27.41,16.07,0,20-11.12,20-18.61,0-16.61-10.24-28.29-23.55-28.29-7.27,0-13.76,5.29-13.76,13.1,0,7.27,5.5,18.16,18.6,18.16,6.16,0,9.8-4.41,9.8-9.47s-4.52-11.77-11.12-11.77a3.24,3.24,0,0,0-3.41,3.41c0,2.64,3.64,5.28,8.15,5.28a5.85,5.85,0,0,0,2.42-.44,2.63,2.63,0,0,1,.33,1.32c0,2.52-2.42,4.06-6.16,4.06a10.77,10.77,0,0,1-11-10.78c0-4,3.41-6.83,8.37-6.83,9.79,0,15.63,8.7,15.63,17.39,0,7.82-4.3,12.33-13.1,12.33-17.61,0-26.19-15.85-22.35-31.92ZM82,105.12c-2.53.66-7.81,3.74-7.81,9.24,0,4,3.08,6.5,6.93,6.5a7.19,7.19,0,0,0,4.29-1.1,12.81,12.81,0,0,1-4.18-9.57A14.78,14.78,0,0,1,82,105.12Zm-27,1.54a8.34,8.34,0,0,0-.11,1.65c0,5.17,2.75,8,6.39,8,2.75,0,5.94-1.65,8.8-5.29a23.12,23.12,0,0,1-4,.33c-4.08,0-8.48-1.09-11.12-4.73Zm-3.85,9.8c0,8.36,2.52,12.33,7,12.33,3.52,0,8.25-2.53,13.87-7.37a48.82,48.82,0,0,1-10.57,1.65c-4,0-7.05-1.54-10.35-6.6ZM218.73,289.28c5.28,0,5-.44,6.61-.44s1.75,1,1.75,1.65c0,2.43-5.4,5.39-15,5.39-5.62,0-9-3-10-6.27A43.44,43.44,0,0,1,180,296.32c-22.57,0-28.3-9.8-35.34-13-5.39-2.42-13.65,2.31-25.2-10.57a27.74,27.74,0,0,0,5.28.44c10.13,0,15.52-4.94,15.52-12.87a29,29,0,0,0-.22-3.08c3.09,1.21,10.13,6.5,11.77,15.85.22,1.1,4.74,2.09,7.6,2.09,4,0,9-1.65,9.8-8.14,13.21-1.1,22.12-8.92,24-18.83,4.74,1.54,10.12,5.84,11.45,8a19.75,19.75,0,0,1,6.6-1,42.33,42.33,0,0,1,12.22,2.09c.22-1.43.44-3.2,2.65-3.2,3.3,0,2.42,3.63,3.52,5.73.55,1.1,3.3,1.76,3.3,4a2.81,2.81,0,0,1-2.86,2.86,4.76,4.76,0,0,1-1.33-.22c-2.2.77-2.31,16.61-11.56,16.61-6.82,0-13.1-5.61-15.84-12.66-.77-2.09-2.43-3.41-4-3.41-1.76,0-2.75.34-4.84,2.64a38.22,38.22,0,0,1-28.06,12.11c-3.74,0-6.71-.33-7.49-.33-.44,0-.44.11-.44.22,0,.77,3.74,3.74,11.89,3.74,19.37,0,24.1-10.9,27.18-10.9a2.56,2.56,0,0,1,2.54,1.76c4.51,10.57,14.31,13,20.47,13h.1ZM156.21,68c7.26,0,10.57,6.27,10.57,13.32,0,3.08-.88,7.59-2.31,7.59s-1.21-2.53-1.43-4.85c-.22-3-.77-3.63-1.75-3.63-1.87,0-3.08,4.4-3.08,8.47,0,2.53.43,5.39,2.42,5.39a4,4,0,0,0,2.75-1.21c-.44,5.06-4.18,9.46-9.47,9.46-9.69,0-13.32-11.34-14.42-17.94-5.83,6.17-11.23,10.68-20.91,10.68-9,0-13.09-6.6-13.09-12.88,0-1.87.66-6.72,3-6.72,2.76,0,.33,9,5.73,9,1.32,0,3.74-1.1,5.06-4.73a20.37,20.37,0,0,0,1.21-6.5c0-3-.66-4.84-2.86-4.84a8.66,8.66,0,0,0-5,2.2c2.64-7.92,9-12,16.07-12,8.7,0,13.32,7.71,13.32,16.29a21.52,21.52,0,0,1-.33,3.74C145.43,72.76,150.6,68,156.21,68ZM128.59,2.42c0-.66-3.3-1.32-7.82-1.32C113.62,1.1,114.61,7,109.11,7,103.38,7,104.81.88,97.55.88c-4.41,0-8.47.77-8.47,1.76,0,1.32,5.17.77,5.17,4.41,0,3.85-11.12,5-11.12,7.26,0,.77.88,1.1,2,1.1,2.42,0,6.28-1.1,9-1.1,1.55,0,3,.33,3,1.76,0,2.75-5.94,7.71-5.94,9.91,0,.66.55.88,1.1.88,2.2,0,5.94-5.62,9.47-5.62,5.83,0,2,12.44,5.17,12.44s1.87-12.22,6.61-12.22c3.85,0,6.72,8.47,9.36,8.47a1.25,1.25,0,0,0,1.21-1.32c0-2.31-3.3-7-3.3-10.13,0-1.87,1.32-2.75,3.09-2.75,2.53,0,5.95,1.54,7.82,1.54.66,0,1.32-.22,1.32-1,0-2.64-9.8-5.5-9.8-8.92s5.39-3.42,5.39-5ZM285.45,219.16c-2.32,0-15.09,17.07-23.34,17.07-2,0-3.63-3.74-3.63-6.6,0-1.54,1-2.65,4.52-3.41,18.93-4.3,14.74-18.49,30.92-18.49,8.92,0,18.83,6.06,18.83,19.7,0,14.52-20.69,32.59-23.78,32.59-2.53,0-5.28-3.64-5.28-6.06,0-.77.33-1.76,2.54-2.64,10.56-4.19,16.61-13.87,16.61-18.82a2,2,0,0,0-2-2.2c-1.88,0-9.9,18.27-18.82,18.27-6.17,0-12.45-5.61-12.45-8.25,0-4.41,17.84-12.56,17.84-18.72C287.42,219.26,286.32,219.16,285.45,219.16Zm11.88-6.82c-1.55,0-3.2,1.22-3.2,4.18a7,7,0,0,0,4,6.06,6.81,6.81,0,0,0,3.19.88c3.19,0,5.72-.88,5.72-3.52,0-3.41-5-7.59-9.69-7.59ZM154.45,13.65c0,2,6.94,6.28,10.13,6.28,1.87,0,2.42-2.53,2.42-5.18,0-3.29-1.44-3.41-4.3-3.41C159.08,11.34,154.45,12.33,154.45,13.65Zm11.45,21.8c0-6.61-18-18.83-18-23.77a1,1,0,0,1,.1-.55c1.32-3.63,16.29-6.17,16.29-9.14,0-1.43-2.64-1.43-4-1.43-10.24,0-25.21,3.74-25.21,7.38s13.43,12.88,13.43,17.4c0,1.21-.77,1.65-2,1.65-3.74,0-11.89-4.52-15.74-4.52-1.76,0-2.42,1.21-2.42,3,0,5.28,6.27,15.3,6.27,18.27,0,.33-.11.77-.54.77-2,0-11.34-11-14.64-11-1.21,0-1.32,1.65-1.32,4.07v3.74c0,2.53-.11,4.07-1.32,4.07-2.86,0-4.19-8-6.94-8s-3.41,14.31-6.16,14.31c-3.19,0-.44-15.75-3.53-15.75-3.41,0-7.27,10.46-9.68,10.46-.88,0-1.1-.88-1.1-1.65,0-3.19,1.87-8.36,1.87-11.45,0-1.54-.44-2.42-1.76-2.42-3.41,0-10.89,5.51-13.76,5.51-.44,0-1-.22-1-.66,0-2.64,12-11,12-14.75s-16.51-1.21-16.51-5.4C70.25,12,82,8.36,82,4.73,82,1.54,68,.11,62.66.11c-6.5,0-10,.77-10,2.64,0,2.86,14.75,3.74,14.75,6.28s-15.3,8.92-15.3,12.66c0,3.3,21.58.21,21.58,3.63,0,3.74-18.83,19.92-18.83,25.32,0,1.21.88,1.76,2.09,1.76,5.73,0,20.59-10.9,24.66-10.9,1.43,0,1.54,1.75,1.54,3.29,0,2.87-1,7.27-1,10.46,0,2.53.66,4.29,2.86,4.29,4.07,0,7.81-6.93,10.56-6.93C99.09,52.61,97,73,102.28,73c4.51,0,6.38-22,9.24-22s5.18,6.38,7.82,6.38c3.3,0,1.76-11.12,5.28-11.12,3.85,0,14.86,13.21,19.81,13.21,1.54,0,2.09-1.21,2.09-2.75,0-5.83-8.15-19-8.15-23.22,0-1.1.33-1.43,1.54-1.43,4.29,0,16.84,5.95,22.78,5.95,2,0,3.19-1.1,3.19-2.53Zm150.26,126.7c1.76-5.51,4-9.37,7.58-15.3-3.63-1.87-13.2-5.83-13.2-12.33C310.55,126.92,320,121,322,121c.88,0,1.11.77,1.11,2.2,0,4-1.88,10.34-1.88,13.75,0,3.08,2,6.05,3.74,6.05s7-6.6,7-13.09a14.84,14.84,0,0,0-13.42-15.19c-3,0-8.37,4.84-21,4.84-23.66,0-29.05-23.45-29.05-33.69,0-.44.1-.55.21-.55.56,0,2.87,2.86,10.35,2.86,3.86,0,7.38-1,13-1,13.2,0,19,9.14,27.19,20.81,4.94,3.08,16.72,8,16.72,22,0,12.32-13.1,19.15-16.28,32.36,5.05-.55,8-9.58,13.21-9.58,2.64,0,3.85,2.1,3.85,5.4,0,4.85-2.75,12.11-8,16.62a7.16,7.16,0,0,0,.11-1.65c0-3.09-1.21-7.49-4.74-7.49-5.49,0-7.25,5.94-10.34,10.9-3.19-11.23-7.49-21.36-15.19-27.52s-21.25-2.86-21.25-14.31c0-3.09,2-7.49,2-11a5.19,5.19,0,0,0-.88-3.19c10.57,4,6.82,11,13.32,18.26,4.06,4.63,15.29,9,21.8,28.07a21.76,21.76,0,0,0,.21-3c0-16.29-21.57-32.25-23.44-38.85,12.54,1.43,14.74,4.51,20.69,21,1.22,3.41,5.18,11.89,5.18,16.07ZM79.71,72.43a21.64,21.64,0,0,0,1-6.39c0-5.29-2.42-13.32-9.91-13.32a7.32,7.32,0,0,0-7.37,7.48c0,8.7,8.7,12.22,16.29,12.22Zm-9.36,27.74c-3.63,0-7.59-4.51-7.59-8.58,0-2.2,1.65-5,2.85-5,.44,0,.66.33.78,1.1a12.51,12.51,0,0,0,7.49,10c.33.22.55.33.55.55,0,.77-2.1,1.87-4.08,1.87Zm13-10.35c0,1.54-.88,3.52-2.65,3.52-3.85,0-6.93-5.84-6.93-9.14,0-2.09,1.21-2.31,2.86-2.31a2.68,2.68,0,0,1,1.65.44c1,.55,1,2.75,2.19,4.4.66,1.1,2.87,2.31,2.87,3.09ZM79.49,78.26a16.23,16.23,0,0,0-2.42-.11A23,23,0,0,0,64.3,81.68c-9.69,6.28-8.15,16.18-9.69,18.71a2.22,2.22,0,0,0-.33,1.22,2.34,2.34,0,0,0,2.09,2.09c.89,0,1.44-.21,1.87-.21,2.64,0,5.61,1.87,9.91,1.87,2.53,0,5.5-.77,9.25-2.65,7.93-4,11-13.76,11-15.41,0-2.09-1.65-1.76-3.08-3.74-1.54-2.31-.77-3.19-1.76-4.51-.67-.55-2.09-.55-4.08-.77ZM91.16,96a20.89,20.89,0,0,0-5,12.66c0,5.94,3.63,10.89,9.25,10.89,5.4,0,7.93-4.63,7.93-9.35,0-7.38-6.72-12.55-12.22-14.2ZM67.6,74.85a13.18,13.18,0,0,1-7.15,2.42A8.28,8.28,0,0,1,52,68.8a9.27,9.27,0,0,1,5.84-8.7A10.71,10.71,0,0,0,57.7,62C57.7,68.25,61.22,73,67.6,74.85Zm195.83,64.06a4.24,4.24,0,0,1,8.47,0,4.24,4.24,0,1,1-8.47,0Zm2.86,126.6c.55,0,1.21.33,1.21,2.31,0,2.41-1.1,5.6-5,8.14a21.33,21.33,0,0,1-12,3.52,26,26,0,0,0,1.54-8,21.63,21.63,0,0,0-.22-2.52h1.43C261.89,268.92,265.62,265.51,266.29,265.51Zm.88-10.9a4.06,4.06,0,0,0,1.1-3.19v-2.53c0-3.19-4.83-5.07-11.44-5.07-8,0-12.33,3.63-12.33,5.18v5.06c0,2.09,4.85,4.18,10.79,4.18C260,258.24,264.31,257,267.16,254.6Zm5.73,1.21A32.5,32.5,0,0,1,252.2,263c-5.94,0-8.58-1.87-9.46-1.87-1.1,0-2.31,1.1-3.52,2.53-2.64,3.08-6.06,8.8-6.06,15.07,0,4.41,3.41,8.81,9.8,8.81,20.59,0,36-12.89,36-23.33,0-5.95-3.52-8.37-6.06-8.37Zm3.85-92.58c0,2.75.89,5.94,3.64,5.94,2.31,0,4.3-3.52,4.3-7.37,0-4.41-.78-7.82-.78-9.58,0-.76.33-1.1.78-1.1,1.65.11,3.19,4.63,5,4.63,2,0,4.95-3.63,6.15-3.63.33,0,.44.44.44.55,0,1.65-2.54,5.28-2.54,6.72,0,1.21,6.39,1.43,6.39,2.53,0,1.65-6.72,1.65-9.9,3.08s-5,3-5,5.17,2.2,2.64,5.28,2.64c7.37,0,12.55-4,14.2-4a.52.52,0,0,1,.55.55c0,1.1-3.74,4.74-3.74,6.39,0,1.87,6.83,4.07,6.72,5.17-.11.33-.55.44-1.32.44-1.21,0-3.08-.33-4.52-.33-.88,0-1.65.1-2,.55-.78.88.22,6.72-1.33,6.72s-5.18-13-13.64-13c-1.21,0-2.1,1-2.1,2.64,0,4.4,4.3,9.46,8.37,11.89,1.86,1.22,4.95,2.42,4.95,3.09,0,1.31-7,.11-7,2.3,0,2,.88,5,.88,6.72,0,.55-.1,1.21-.77,1.21-1.32,0-4.52-6.05-6.06-6.05-1.32,0-4.18,3.63-5.39,3.63a.62.62,0,0,1-.56-.66c0-2.53,4.08-8.25,4.08-13.87,0-2.64-.33-8.36-3.52-8.36-2.65,0-5.62,4.18-6.94,8.36-.77,2.42-.21,11.78-2,11.78s-1.21-6.27-3.41-6.27c-1.64,0-5.16,3-6.38,3-.22,0-.44-.11-.44-.33,0-1.32,3.19-5.61,3.19-6.49,0-1.65-7.27-1.87-7.27-3.2,0-.77,2.86-1.32,5.51-1.76,5.61-1,13.87-5.06,13.87-10.79,0-6.39-6.17-9.13-10.23-11.78-2.1-1.32-4.41-2.43-4.41-3.3s2.65-.88,3.74-.88c1.64,0,3.29-.11,3.29-1.43,0-1-.23-3-.23-4.51,0-1.1.11-2,.56-2,1.65,0,4,5.39,5.07,5.39,1.75,0,4.18-4.4,5.84-4.4.55,0,.77.33.77,1.32,0,4.08-2.1,8.7-2.1,12.67ZM224.24,131c1.21,9.35,13.76,4.62,13.76,16,0,1.65-.44,4.08-.44,6.16,0,2.42.22,4.52,2.09,4.52s2.32-1.32,2.32-3.09-.44-4-.44-5.17c0-3.85,2.76-4.74,4.4-4.74,4.18,0,7.38,4.3,13.66,4.3-1.43,7-16,5.17-16,12.88,0,3.85,3.85,4.73,6.38,4.73,2.31,0,3.08-.33,3.08-2.31,0-1.1-.22-2.31-.22-3.09a.86.86,0,0,1,.88-.88c2.42,0,14.3,9,14.3,11.78,0,2.53-12.54,5.06-16.18,5.06a1.17,1.17,0,0,1-1.32-1.21c0-.77,1.87-3.09,1.87-4.41,0-1-1.65-1.65-6.06-1.65-2.09,0-3.63.22-3.63,1.87,0,3,4.84,6.6,4.84,9.36,0,2.2-1.32,3.52-4.84,3.52-3,0-7.49-2.31-7.49-6.16,0-3.09,3.2-6.17,3.2-8a1.56,1.56,0,0,0-1.76-1.43c-4.08,0-5.17,10.79-19.6,12,2.32-2.09,4.3-4.4,4.3-9.14,0-2.31-.55-4.19-.55-6.71,0-3.3,1.54-5,3.74-5,4.08,0,6.06,5.72,8.7,5.72a3.18,3.18,0,0,0,3-3.29c0-8.37-16.07-7.16-16.07-18.94C220.17,140.45,221.26,136.49,224.24,131Zm20.92,71.54a2.64,2.64,0,0,0,2.64,2.76,3,3,0,0,0,2.87-3.3c0-2.31-2.1-5.51-4.08-5.51-.88,0-.55,1.32-.77,2.75-.1,1.1-.66,2.43-.66,3.3Zm-5.72-14.64c11.56,2.2,17.84,10.9,17.84,19,0,5.62-3.52,10.78-9.7,10.78-5.61,0-9.68-3.85-9.68-10,0-4.62,3.63-9.47,3.63-14.21a8.47,8.47,0,0,0-2.09-5.61Zm-14.64,18.72a4.42,4.42,0,0,1,1.43,3.3c0,1.65-.77,3.41-.77,5.27a4.83,4.83,0,0,0,4.85,4.95,5.12,5.12,0,0,0,5.17-5.28C235.47,210.69,231.17,206.61,224.79,206.61Zm36.44-7a6.56,6.56,0,0,1,1.1,3.52c0,3.08-2.09,5.95-2.09,9.14a6.57,6.57,0,0,0,6.93,6.6,7.62,7.62,0,0,0,7.6-7.92c0-5.83-5.28-10.79-13.54-11.34Zm-33.8-5.84c5.06.66,6.28,2.42,6.28,3.85,0,2.43-2.2,3.2-4.29,3.2-1.54,0-3.3-.33-5.18-.33a8.35,8.35,0,0,0-6.82,2.86c1.43.22,3.52,1.21,3.52,3.41,0,6.39-17.73,1.1-17.73,17.5,0,8.7,9,18.16,22.68,18.16,7,0,11.55-2.3,11.55-4.94,0-2.09-3.74-.66-3.74-2.42,0-.78,1.32-2.2,1.32-3.41,0-.55-.44-1.54-1.32-1.54-2,0-5.72,3.19-13.32,3.19-5.94,0-11.78-3.41-11.78-8,0-1,.44-1.54,1.1-1.54s1.54.44,2.31.44.77-.44.77-1.65,0-4.63,2.1-4.63,6.05,7.71,21.24,7.71c5.06,0,14.86-1,18.49-4.29-.11,12.12-9.58,28.07-29.39,28.07-20.59,0-31.59-16.5-31.59-31.7a32.41,32.41,0,0,1,32.58-32.14c4.84,0,8.92,1.65,8.92,3.74,0,2.87-7.15,1.11-7.71,4.52ZM147.74,81c0-1.87-.44-2.31-.88-2.31-1.1,0-2.32,1.32-4.07,4.29.22,4,.88,5.73,2,5.73s3-3.85,3-7.7Zm-15.09,4.51c1.21,0,2.75-1.32,5.62-4.51a28.17,28.17,0,0,0,.22-4.41c0-2.2-.88-4.63-2.21-4.63-3.29,0-4.95,8.81-4.95,11.12,0,1.33.66,2.42,1.32,2.42Zm17.95,9.8c2.75,0,5.83-10.57,5.83-17.17,0-1.43-.22-3-.88-3-2.31,0-6.17,10.89-6.17,16.84C149.39,94.34,149.94,95.32,150.6,95.32Zm-27-6.05c3.74,0,8-20.25,8-23.67,0-.88-.33-1.54-1.1-1.54-3.41,0-8.15,19.26-8.15,23.55C122.42,88.39,122.64,89.27,123.63,89.27Zm12,8.36c-4.73,0-4.95,5.73-4.95,17.28-3.52-7.59-9.36-15.74-16.18-15.74-4.63,0-6.39,3.08-6.39,8.48a20.82,20.82,0,0,0,.33,3.74c.55-1.86,2.31-2.64,4.52-2.64,4.73,0,10.45,3.63,14.2,8.58a73.1,73.1,0,0,0-12-1.54,13.82,13.82,0,0,0-5.83,1c-3.19,1.43-7.49,6.17-7.49,13.32a21.76,21.76,0,0,0,.34,3.63c3.85-8.59,14.09-12.43,20.69-12.43a20.7,20.7,0,0,1,3.08.22c-3.41,3.07-4.18,8.47-4.4,12.1-.11,1.76-.77,1.87-2,1.87,0,3.62,2.86,9,2.86,11.77a2.33,2.33,0,0,1-1.1,2.09c0,4.84,4.84,8.36,4.84,11.45a2.59,2.59,0,0,1-.55,1.76c.33,2,5.62,5.39,6.28,6.82,1.1,2.31,1.87,2.53,2.42,2.53,1.87,0,4.84-2.2,4.84-4.19a2.61,2.61,0,0,0-1-1.76c-2.09-1.54-3.19-4.84-4.07-7A2.16,2.16,0,0,1,132,157.4c-.44-1.43-.67-6.6-1.54-9.13-1.44-.33-2.09-.88-2.09-3.86,0-1.43.88-7,.88-9a1.56,1.56,0,0,1-1.54-1.76c0-3.52,3.52-6.27,4.52-10.78,6.27,4.62,7.81,9.35,7.81,13.53a28.9,28.9,0,0,1-.77,6.27c4.63-2.31,11.56-5.72,11.56-12.65,0-4.07-1.87-8.58-14.31-10.35a39,39,0,0,1,12.77-2.2c7,0,11.12,2.2,12,7.15a13.74,13.74,0,0,0,2.53-7c0-5.4-4.51-8.91-10.24-8.91-6.71,0-12.66,3.52-19,7.81,2.87-5.94,4.85-9.46,8.37-9.46a8.29,8.29,0,0,1,1.65.22c-1.32-4.85-6.27-9.58-8.91-9.58ZM65.4,29.06c0,2.2-8.37,9.58-11.34,9.58-1.1,0-1.43-1.32-1.43-2.53,0-2.2,1-5.29,2.2-6.28,1.43-1.32,4.74-2,7.27-2,1.55,0,3.3.32,3.3,1.21ZM321.11,177c5.5,0,9.91,7.16,9.91,15.53a34.57,34.57,0,0,1-11.66,25.2c-.11-14.85-18.28-10.12-18.28-20.91,0-4.62,3.3-7.71,7.27-7.71,3.52,0,6.28,1,8.26,3a9.76,9.76,0,0,1-3-7c0-4.18,2.64-8,7.48-8ZM239.43,64.39c-.88-1.43-4.18-2.2-5.72-2.2a8.9,8.9,0,0,0-8.8,6.5,10.33,10.33,0,0,1-.78-3.74c0-4.85,3.3-10.79,11.34-10.79,7,0,9.8,3.74,10.79,3.74s2.2-1.1,3.08-1.1c1.21,0,1.21,1.87,1.21,3.19,0,4.41-2,12-6.93,14.75a11.22,11.22,0,0,0-5.5-5.29,1.72,1.72,0,0,1-1.1-1.64A4.44,4.44,0,0,1,239.43,64.39Zm-16.62,8c2.87,2.75,5.39,4,8.47,4,1.21,0,2.64-.33,3.42-.33,1,0,1.65.44,1.65,1.21a6.9,6.9,0,0,1-2.42,4.3,11,11,0,0,0,4.3.77c6.27,0,13.43-4,13.43-13.87a14.75,14.75,0,0,1,2.1,7c0,12-8.81,16.62-17,16.62-5.28,0-7.93-1.76-8.59-1.76-2.09,0-2,4.18-3.41,4.07-2.53-.44-4.84-6.06-4.84-12a17.45,17.45,0,0,1,2.86-10Zm-76.5-32c0,3.85,13.76,22.68,16.4,22.68,2.2,0,3.85-3.85,3.85-7.16a4.43,4.43,0,0,0-.66-2.42c-2-2.75-16-13.76-19-13.76A.62.62,0,0,0,146.31,40.4Zm158.83-9c0-7.81-18.71-9.79-18.71-11.56,0-1.43,10.45-3.85,15.85-4-8.26-10.56-20-9.46-20-11.33,0-1.1,8.81-3.31,16.95-3.31,6.82,0,13.22,1.55,13.22,6.72,0,2.86-2.32,5.84-2.32,10.24,0,2.42,1.21,4.52,4.41,4.52,3.41,0,4.18-3.63,4.18-7.49,0-3.19-.55-5.61-.55-7.15a7.33,7.33,0,0,1,7.7-7.71C329.59.33,330.46,2,336,2a8.41,8.41,0,0,0-4.07,6.5c0,4.63,3,7.82,3,17.29,0,17.39-16.29,23.55-36.22,23.55A113.35,113.35,0,0,1,281.6,48c-.89-.11-1.11-.33-1.11-.88,0-1.43,7.82-2.2,7.82-9.25,0-2.75-.89-5.4-.89-6.39a.87.87,0,0,1,.86-.88h0c1.65,0,4.94,6.39,11.11,6.39,1.65,0,5.73-.55,5.73-5.62Zm18.6-11.12c0,9.8-7.14,17.28-20,19.38,1.43.11,2.76.11,4.08.11,15.07,0,20.58-6.83,20.58-12.55a7,7,0,0,0-4.63-6.94ZM313.3,108.76c0-2.31-5.84-2.53-6.39-9-.11-1-.44-2.75-1.65-2.75-2,0-.44,6.05-2.64,6.05-5.07,0-6.72-9.9-8.59-9.9-.44,0-1,.33-1,1.65s.22,2,.22,3.41-.33,2.42-1.64,2.42c-3,0-5.62-6.93-8.15-6.93a1,1,0,0,0-1.1.88c0,1.33,2.2,3.74,2.2,4.95,0,2.65-7.16,1.21-7.16,3.41,0,1,1,1.32,2.32,1.32,2.32,0,5.95-1,7.82-1,1.11,0,2.76.22,2.76,1.65s-4,3.53-4,5a1.11,1.11,0,0,0,1.21,1c3,0,8.25-5.17,12-5.17.66,0,2.32.33,2.32,1.32,0,1.43-3.75,4-3.75,6a1.11,1.11,0,0,0,1,1.21c2,0,4.63-5.17,8.37-5.17,1.43,0,3.52.55,4.62.55.88,0,1.21-.55,1.21-.88Zm-78.82-84c0-1.21-4.29-3.52-4.29-4.84,0-.22.22-.33.55-.33,1.21,0,3.3.44,5,.44,1.43,0,1.65-6.16,2.76-6.16.77,0,2.09,5.83,3.3,5.83,1.43,0,4.07-1.65,5.17-1.65.22,0,.43.11.43.33,0,.77-2.75,3.74-2.75,4.63s6.17,2.2,6.17,3.09c0,1.1-6.29,1-6.29,2,0,.77,2.32,3.85,2.32,4.85a.29.29,0,0,1-.33.33c-.88,0-4.29-1.54-5.28-1.54-1.21,0-3.19,4.52-4.18,4.52-.33,0-.55-.44-.55-1l-.22-4.4a.78.78,0,0,0-.77-.88c-1.32,0-3.85-.11-4.62-.11-.55,0-.77-.11-.77-.33,0-.88,4.4-4,4.4-4.73Zm21.47,20.91c-7.71,0-12.77-3.85-12.77-5.83a1.54,1.54,0,0,1,1.54-1.65c2.43,0,7.71,3.74,9.47,3.74.44,0,.77-.22.77-.88,0-2-1.87-5.28-1.87-6.93,0-.44.33-.77,1-.77,3,0,7.38,1.21,9.69,1.21.78,0,1-.44,1-.88,0-2.43-7.15-7.15-7.15-8.58s8.91-3.3,8.91-5.4S254.4,19,254.4,16.94c0-1.54,2.31-4.18,2.31-5.39,0-.55-.44-.77-1.21-.77-1,0-6.28,2.09-8.48,2.09-1.1,0-2.42-.22-2.42-1.76,0-2.53,4.3-5.29,11-5.29,10.89,0,17.39,7.49,17.39,20,0,15.85-11.12,19.81-17.06,19.81ZM181.43,236.12a5.06,5.06,0,0,1-1.22,3.19c-1.21-2.2-4.63-3.3-6.16-3.3-11.35,0-7,16.4-19.16,16.4-5.06,0-5.51-.66-7.37-.66-.77,0-1.21.33-1.21,1,0,2.86,4.07,9.91,15.41,9.91S184,255.7,184,247.11a11.51,11.51,0,0,0-1-4.51,3.23,3.23,0,0,1,2.53-1.1c1.76,0,2.76,2,4.41,2a3,3,0,0,0,3.08-3.07,3.33,3.33,0,0,0-2.09-3.09,3.78,3.78,0,0,0,1.54-3,3.5,3.5,0,0,0-3.52-3.63,3.13,3.13,0,0,0-2.42,1.1c-.22-2-1.32-3.85-3.41-3.85a2.84,2.84,0,0,0-2.86,3.09c0,1.76,1.22,3.19,1.22,5.07Zm-29.61,4.18c-3.3,0-8.25-3.52-8.25-5.51a2.67,2.67,0,0,1,2.75-2.53c2.75,0,7.7,3.41,7.7,6.28,0,.77-.55,1.76-2.2,1.76ZM121.1,215.63c8.81,2.2,13.21,6.94,14.09,12.55.88,5.4,2,9.81,4.07,12A19.1,19.1,0,0,0,152.14,246c4,0,7.16-1.32,7.16-4.94,0-4-5.4-12.89-13.32-12.89-.77,0-1.76.11-2.86.11a5.31,5.31,0,0,1-3.31-1c-1.76-1.54-2.31-9.8-5.62-14.74-3.63-5.51-7.59-7-13-7-3.85,0-8.15,2.09-8.15,5.17,0,1.87,1,3.18,8,4.94Zm55.26-13.42c0-5-10.23-5.06-10.23-12.55,0-1.87,1.21-5.07,3.64-8.48,1,5.73,3.3,8.7,8.25,10.57,9.8,3.63,11.12,9.13,11.12,15,0,9.9-6.93,22.24-24.76,22.24-14.31,0-24.55-12.78-24.55-23.56,0-3,.77-6.28,2.65-6.28,1.65,0,2.2,1.32,3.52,2.64,4.95,5,10.35,6.28,18.16,6.28,7,0,12.22-2.86,12.22-5.83Zm.44,7.93c-3.85,1.54-5.28,1.43-5.28,5.27,0,1.43-.33,3.3-.33,4.3,0,1.32.22,2.09,1.76,2.09,4,0,10.23-6.71,10.23-12.44,0-1.54-.88-2.2-1.86-2.2S179.44,208.92,176.8,210.14Zm-35.11-55.6c0-7,16.73-10.79,16.73-19.48a14.42,14.42,0,0,0-1.54-5.83c5.83,3.19,10.13,8.59,10.13,13,0,7.6-7.92,11.12-7.92,15.85,0,5.51,8.47,6.39,8.47,13.21,0,5.61-8,12.11-8,19.38a11,11,0,0,0,10,11,25.39,25.39,0,0,1-5.62.77c-11.12,0-22.57-9.14-22.57-20a18.78,18.78,0,0,1,5.84-13.54c3.08,2.64,6.16,4.41,8.14,4.41,1.76,0,2.54-.88,2.54-2.2,0-4.08-16.18-7.82-16.18-16.52ZM164.39,390c3.11,0,8.46-1,12.67-7.76-2.4-5.33-4.12-16.14-4.37-20.07-1.24-20.1,6.51-39,15-39.53,6.22-.37,11.19,5.51,11.76,15,1.54,25.06-6.82,35.53-11,44.53.7,3.51,6.63,9.46,12.24,9.46,2.07,0,4.57-1,5.19-1.87a20.44,20.44,0,0,1-.84-6c0-14.51,9.35-26.77,17.43-26.77,6.44,0,10.15,8.5,10.15,14.13,0,6.62-5.6,12-13.89,17.21a10,10,0,0,0,6.44,2.49c11.82,0,18-14.31,22.61-27.39.83-2.49,2.29-6,5.18-6,5,0,7.06,32.77,15.35,32.77,3.53,0,6.43-7.26,6.43-12.85,0-4.15-1.45-4.57-1.45-10.59,0-6.63,3.52-12.23,8.31-12.23,2.9,0,3.94,2.9,3.94,6.43,0,13.28-9.54,38-23.64,38-10.59,0-9.77-18.27-13.49-18.27-4.16,0-10,18.48-30.5,18.48-3.33,0-6.85-1.66-9.75-5-5,3.34-9.14,4.79-13.91,4.79-7.67,0-11-7.89-14.09-7.89-3.74,0-7.88,8.1-20.33,8.1-10,0-11.62-13.27-15.14-13.27-3.12,0-7.89,13.27-13.07,13.27-8.73,0-10.58-23-18.26-23-6,0-25,23.38-30.19,22.85-2.07-.22-2.94-1.77-2.73-3.85.29-2.87,2.76-10.55,3.77-14.19,1.68-6.3,3.22-13.22,4.08-15.43s3.17-3.81,5-3.64c.93.09,1.21,1.83,1.5,3.26,1,5.15,2.51,10.37,4.17,10.37,2.91,0,12.54-18.47,18.13-18.47,6.85,0,7.68,29.05,17,29.05,3.12,0,5.41-3.74,7.47-8.3.21-7.69,2.28-18.67,8.5-18.67,4.37,0,6.44,9.74,3.32,18.26,0,10.15,6.63,12.64,11,12.64Zm154.76-19.5c0-5.18-4.76-12.45-11.82-12.45-9.34,0-18.45,10.17-18.45,24.27,0,12.64,7.86,16.81,15.75,16.81,13.69,0,22-11.23,26.35-20.55,2.08,6.22,3.3,20.55,8.51,20.55,2.07,0,3.52-1,6-6.64,6.21-13.9,12.22-29.88,20.53-29.88,3.1,0,1.24,5.6,8.71,5.6a6.06,6.06,0,0,0,6-6.24c0-4.77-4.35-8.5-11-8.5-19.49,0-23.64,29.26-26.76,29.26-5.19,0-3.52-23.44-7.26-23.44-3.32,0-5,3.95-5.4,5.8-2.7,10.79-10.36,26.35-22,26.35-2.69,0-7.46-1-7.46-3.74,0-2.91,18.26-3.31,18.26-17.21ZM192.72,343.31c-.36-5.79-1.76-8.41-4.87-8.2-4.14.25-6,13.25-5.2,26.9.54,8.92,1.86,10.28,3.1,10.2,2.29-.13,7.76-16.06,7-28.91ZM159,331.13c-.2-3.33-2.89-5.61-6.42-5.61-3.94,0-7.69,4.15-7.26,9.33a6.1,6.1,0,0,0,6.23,6.23c4.56,0,7.88-5.17,7.45-9.95Zm64.53,42.31c0-3.51-1.87-6.43-4.15-6.43-1.88,0-6.22,2.07-6.22,8.71,0,5.19,1.86,7.67,2.7,8.72C221.85,382.57,223.52,377.59,223.52,373.44Zm81.11-7c4.36,0,5.61,5.17,4.57,8.29s-4.77,6.63-10.58,7.67C297.37,379.24,296.74,366.4,304.62,366.4ZM19.29,369.71a87.42,87.42,0,0,1,3.74-29c1.86-6.42,3.53-8.72,9.33-9.95,4.56-.83,4.16,3.93,3.12,9.54-2.28,12.44-3.33,18.46-2.49,32.57.81,14.93,7.67,20.74,15.13,20.74,11.2.21,16.19-9.12,18.26-22.61,1.65-10.79.41-16-.63-19.29a82.55,82.55,0,0,1-2.9-9.12c-.82-7.89,2.9-11.61,6-12.65,3.74-1,5.19.83,6.63,5.19,1.87,6.63,2.08,15.33,1.46,27.77-.83,17-9.34,37.57-30.49,37.14-18.26-.4-26.33-12.24-27.18-30.28Z"/></svg>