<svg id="ups" xmlns="http://www.w3.org/2000/svg" viewBox="0 0 400 400"><defs><style>.cls-1{fill:#b5b5b5;}</style></defs><title>ups</title><path class="cls-1" d="M200,389.24s-91.08-39.74-119.23-62.1C51,302.29,36.88,268.35,36.88,229.43V35.67C108.92-3.24,200,.07,200,.07s91.08-3.31,163.12,35.6V228.6c0,38.92-14.08,72.87-43.88,97.71C291.08,349.49,200,389.24,200,389.24M50.13,229.43c0,36.43,13.25,66.24,38.92,86.94,23.18,19,91.91,49.68,111,58,19-8.28,88.6-39.74,111-58,25.67-20.7,38.92-51.34,38.92-86.94V39c-96-9.11-210.32-4.14-299.74,78.66V229.43Z"/><path class="cls-1" d="M291.91,202.11c12.42,7.45,17.39,12.42,18.22,21.53,0,9.94-6.62,15.73-17.39,15.73-9.11,0-19.87-5-27.32-11.59v26.5c9.11,5,19.87,9.11,31.46,9.11,28.15,0,41.4-19.87,41.4-38.09.83-16.56-4.14-29.81-28.15-43.88-10.76-6.62-19-10.76-19-20.7s9.11-14.08,16.56-14.08c9.94,0,19.87,5.8,25.67,11.59V133.38c-5-4.14-15.73-9.94-31.46-9.11-19,.83-38.92,14.08-38.92,37.26.83,15.73,5.8,27.32,29,40.57M194.2,261.72c2.48.83,6.62,1.66,13.25,1.66,32.29,0,50.51-29,50.51-70.38,0-42.23-19-67.9-53-67.9-15.73,0-28.15,3.31-38.92,9.94V322.17H194.2V261.72Zm0-112.61c2.48-.83,6.62-2.48,9.94-2.48,16.56,0,23.18,13.25,23.18,45.54,0,31.46-8.28,46.37-24.84,46.37a22.16,22.16,0,0,1-9.11-1.66V149.11ZM107.26,263.38c17.39,0,32.29-4.14,43.06-11.59v-125h-29V235.23c-3.31,2.48-7.45,3.31-13.25,3.31-13.25,0-14.9-12.42-14.9-19.87V126.76h-29V217c0,30.64,14.9,46.37,43.06,46.37M300.19,375.16v19h3.31v-7.45h.83l5,7.45h4.14s-5-7.45-5.8-8.28c2.48-.83,4.14-2.48,4.14-5s-1.66-5.8-6.62-5.8h-5Zm5,2.48c2.48,0,3.31,1.66,3.31,2.48,0,1.66-.83,3.31-4.14,3.31h-.83v-5.8h1.66Z"/><path class="cls-1" d="M318.41,384.27A12.42,12.42,0,1,1,306,371.85a12.19,12.19,0,0,1,12.42,12.42M306,368.54a15.73,15.73,0,1,0,15.73,15.73c0-8.28-7.45-15.73-15.73-15.73"/></svg>