<svg id="usaa" xmlns="http://www.w3.org/2000/svg" viewBox="0 0 400 400"><defs><style>.cls-1{fill:#b5b5b5;}</style></defs><title>usaa</title><path class="cls-1" d="M7.78,292v65.43C7.78,394,30.09,400,48.77,400c27.61,0,40.39-18.26,40.39-43V292H70.88v67.26c0,8.5-2.78,24.37-22.11,24.05-17.6-.31-20.85-16.53-20.85-26.92V292Z"/><path class="cls-1" d="M165.49,296.28s-11.66-5.82-24.91-5.82c-16.5,0-37.26,8.51-37.26,31.66,0,16.08,11.82,23.7,19.89,27.62,4.26,2.09,9.48,4.43,13.75,6.72,2.21,1.2,11,4.16,11,13.69,0,10.15-11.12,13.63-16.12,13.63a58.13,58.13,0,0,1-29.93-8.12l1.86,20.4s7.27,3.71,29.07,3.72c20.78-.06,35.77-13.41,35.77-31.82,0-14.16-9.65-22.56-17.89-26.56-6.5-3.21-10.27-4.91-15.91-7.58s-11.46-7.25-11.46-14.39c0-7.63,7-13.11,17.26-13.11,15.12,0,21.21,6.83,24.91,9Z"/><path class="cls-1" d="M290.55,364.83l14.54-41.44,13,41.44Zm-87.6,0,14.56-41.44,13,41.44Zm111.2-73H292.22l3.5,8.85-34,90.95-35.1-99.8H204.64l3.5,8.85-36.29,97h19.81L198,379.17h37.52l6.3,18.46h37.43l6.35-18.46h37.51l6.32,18.46h21.95Z"/><path class="cls-1" d="M6.68,173,7.6,206s8.11-6,17.17-6,19.34,6.53,19.34,6.53l81.24,47.55,6.87-29.88L44.11,172.68s-10.2-6.5-19.34-6.5S6.68,173,6.68,173"/><path class="cls-1" d="M6.68,129.74l.92,33.07s8.11-6,17.17-6,19.34,6.53,19.34,6.53l90,52.66L141,186.12,44.11,129.46S33.91,123,24.77,123s-18.09,6.79-18.09,6.79"/><path class="cls-1" d="M6.68,86.52l.92,33.06s8.11-6,17.17-6,19.34,6.51,19.34,6.51l98.78,57.83,6.85-29.9L44.11,86.21s-10.2-6.48-19.34-6.48S6.68,86.52,6.68,86.52"/><path class="cls-1" d="M176,33.89l9,39,123.72,72.36s9.74,6.5,19.28,6.5,18.13-6.8,18.13-6.8l-.92-33.06s-7.77,6-17.21,6-19.28-6.52-19.28-6.52L213,55.39l-6.61-25.1a1.79,1.79,0,0,1,1.3-1.65l16.21-5.08A3.47,3.47,0,0,1,227.37,27l.86,1.79c.59.31,3-.89,3.21-1V17.94A12.28,12.28,0,0,0,219.12,5.56H202.93A10,10,0,0,0,193.68,0H162.93c-8.12,0-10.09,7.66-10.09,7.66L131.49,94.17,44.11,43S34.65,36.5,24.77,36.5,6.68,43.29,6.68,43.29L7.6,76.34a29.77,29.77,0,0,1,17.17-6c9.89,0,19.34,6.53,19.34,6.53l107.5,62.89Z"/><path class="cls-1" d="M187.47,83.63l9,39.19,112.27,65.67S318.81,195,328,195s18.13-6.82,18.13-6.82l-.94-33.06a29.32,29.32,0,0,1-17.19,6c-10,0-19.28-6.5-19.28-6.5Z"/><path class="cls-1" d="M199,133.58l9,39.2,100.75,58.93s10.07,6.52,19.29,6.52,18.12-6.81,18.12-6.81l-.92-33.06a29.42,29.42,0,0,1-17.2,6c-10,0-19.29-6.5-19.29-6.5Z"/><path class="cls-1" d="M210.5,183.58l9,39.14,89.21,52.22s10.08,6.54,19.3,6.54,18.12-6.85,18.12-6.85l-.92-33a29.34,29.34,0,0,1-17.2,6c-10,0-19.3-6.55-19.3-6.55Z"/><path class="cls-1" d="M371.69,285.82a21.85,21.85,0,1,1-.09,0Zm-.09,3.42c-9.68,0-17.61,8.31-17.61,18.59,0,10.46,7.93,18.68,17.7,18.68s17.62-8.23,17.62-18.59-7.82-18.68-17.62-18.68Zm-4.11,31.4h-3.92V296.1a43.64,43.64,0,0,1,7-.59c3.71,0,6.16.78,7.62,1.87a5.87,5.87,0,0,1,2.26,5.08c0,3.24-2.15,5.2-4.79,6v.18c2.16.39,3.61,2.35,4.11,6,.59,3.82,1.17,5.29,1.56,6.07h-4.11c-.59-.78-1.19-3-1.67-6.25s-2.15-4.32-5.29-4.32h-2.73Zm0-13.61h2.83c3.24,0,6-1.17,6-4.2,0-2.16-1.56-4.3-6-4.3a19.31,19.31,0,0,0-2.83.18Z"/></svg>