<?xml version="1.0" standalone="no"?>
<!DOCTYPE svg PUBLIC "-//W3C//DTD SVG 20010904//EN"
 "http://www.w3.org/TR/2001/REC-SVG-20010904/DTD/svg10.dtd">
<svg version="1.0" xmlns="http://www.w3.org/2000/svg"
 width="572.000000pt" height="572.000000pt" viewBox="0 0 572.000000 572.000000"
 preserveAspectRatio="xMidYMid meet">
<metadata>
Created by potrace 1.11, written by Peter Selinger 2001-2013
</metadata>
<g transform="translate(0.000000,572.000000) scale(0.100000,-0.100000)"
fill="#000000" stroke="none">
<path d="M4740 5319 c-52 -11 -106 -21 -120 -24 -14 -2 -144 -27 -290 -54
-146 -28 -277 -52 -293 -55 -15 -3 -35 -7 -45 -10 -9 -3 -35 -7 -57 -11 -22
-3 -85 -15 -140 -26 -55 -11 -113 -22 -130 -25 -16 -2 -37 -7 -45 -9 -8 -3
-31 -7 -50 -10 -19 -2 -48 -7 -65 -10 -16 -3 -77 -15 -135 -26 -58 -11 -136
-26 -175 -34 -38 -8 -86 -17 -105 -20 -45 -8 -79 -14 -110 -20 -14 -3 -41 -8
-60 -11 -52 -10 -59 -11 -140 -28 -41 -8 -88 -18 -105 -20 -25 -5 -185 -35
-275 -52 -14 -3 -95 -18 -180 -34 -85 -16 -249 -48 -365 -70 -228 -43 -232
-44 -320 -60 -33 -6 -116 -22 -185 -35 -69 -14 -136 -26 -150 -29 -33 -5 -374
-71 -527 -101 -67 -13 -137 -32 -155 -41 -97 -49 -146 -169 -118 -289 5 -22
11 -51 13 -65 3 -14 10 -52 16 -85 6 -33 14 -73 16 -90 3 -16 8 -37 10 -45 3
-8 7 -33 10 -55 10 -65 36 -159 48 -174 9 -10 13 -389 17 -1480 5 -1403 6
-1468 24 -1503 23 -47 68 -91 115 -115 34 -17 142 -18 2236 -21 1586 -2 2213
0 2245 8 61 15 125 65 152 120 l23 45 0 1385 c0 1330 -1 1386 -19 1422 -10 21
-34 54 -54 73 -72 70 76 65 -1996 66 -1594 1 -1861 3 -1806 14 68 14 537 104
580 111 37 7 388 73 440 84 25 5 97 18 160 30 63 12 171 33 240 46 69 14 137
27 152 29 15 2 35 6 45 9 10 3 34 7 53 10 19 3 46 8 60 11 14 2 36 7 50 9 14
3 84 16 155 30 127 24 158 30 220 41 17 3 41 8 55 10 14 3 36 8 50 10 14 3
167 32 340 65 173 33 326 62 340 65 14 3 52 10 85 16 33 6 116 22 185 35 69
14 141 27 160 30 242 38 307 69 360 172 28 53 28 97 1 242 -12 63 -24 129 -27
145 -3 17 -9 50 -15 75 -5 25 -11 56 -13 70 -21 128 -43 178 -98 221 -78 62
-131 69 -288 38z m169 -176 c22 -19 26 -35 86 -358 14 -77 28 -145 30 -152 2
-6 -5 -23 -15 -36 -19 -24 -85 -41 -330 -83 -14 -3 -106 -21 -205 -40 -99 -19
-196 -37 -215 -40 -19 -3 -43 -7 -53 -10 -10 -3 -30 -7 -45 -9 -15 -3 -38 -7
-52 -10 -14 -3 -41 -8 -60 -11 -19 -3 -41 -7 -47 -9 -7 -2 -13 -1 -13 3 0 4
48 78 108 165 59 86 163 240 232 342 77 114 133 187 145 190 11 2 83 16 160
30 77 15 156 30 175 35 55 13 76 11 99 -7z m-715 -125 c-7 -13 -123 -183 -318
-471 -56 -81 -105 -155 -111 -164 -22 -38 -43 -53 -80 -59 -22 -3 -83 -15
-135 -25 -52 -11 -111 -22 -130 -25 -19 -3 -51 -9 -70 -14 -19 -5 -53 -11 -75
-15 -22 -3 -110 -19 -195 -35 -300 -58 -322 -62 -326 -57 -4 3 175 273 213
322 5 6 49 71 99 145 158 235 151 227 198 235 22 4 48 9 56 11 16 3 67 13 109
21 14 2 106 19 205 38 100 19 197 37 216 40 19 4 96 19 170 34 160 33 184 36
174 19z m-1297 -325 c-36 -54 -96 -143 -134 -198 -38 -55 -113 -165 -167 -245
-54 -80 -100 -147 -102 -149 -3 -4 -75 -18 -284 -56 -14 -3 -83 -16 -155 -30
-71 -14 -143 -28 -160 -31 -16 -3 -61 -11 -100 -19 -38 -8 -86 -17 -105 -20
-19 -3 -42 -8 -50 -10 -8 -2 -31 -6 -50 -9 -19 -3 -45 -8 -58 -10 -29 -6 -35
-17 153 259 86 127 186 274 223 328 71 104 79 112 127 120 99 16 226 39 260
47 33 8 167 33 287 55 13 3 84 16 158 31 74 14 151 28 170 31 19 3 37 7 39 9
2 2 7 2 9 -1 3 -3 -24 -49 -61 -102z m-1231 -226 c-75 -109 -238 -349 -339
-498 l-71 -106 -56 -11 c-451 -86 -490 -93 -509 -82 -21 11 -32 44 -51 145
-16 91 -20 112 -41 220 -32 159 -32 169 -12 193 17 20 87 38 263 67 19 3 42 8
50 10 8 2 31 7 50 10 19 3 55 10 80 15 25 5 117 23 205 39 88 17 174 33 190
36 17 3 66 12 110 21 44 8 96 18 115 22 85 19 85 20 16 -81z m3464 -967 c20
-20 20 -33 20 -1360 0 -1327 0 -1340 -20 -1360 -20 -20 -33 -20 -2200 -20
-2167 0 -2180 0 -2200 20 -20 20 -20 33 -20 1360 0 1327 0 1340 20 1360 20 20
33 20 2200 20 2167 0 2180 0 2200 -20z"/>
<path d="M1489 2741 c-20 -20 -29 -39 -29 -61 0 -22 9 -41 29 -61 l29 -29
1412 0 1412 0 29 29 c39 40 39 82 0 122 l-29 29 -1412 0 -1412 0 -29 -29z"/>
<path d="M1489 1661 c-20 -20 -29 -39 -29 -61 0 -22 9 -41 29 -61 l29 -29
1411 0 1410 0 26 23 c15 13 28 37 32 59 5 32 1 41 -25 68 l-30 30 -1412 0
-1412 0 -29 -29z"/>
</g>
</svg>
